#!OML:ASF X:\für Bonn\!DataBase\2005_08_12_Daniel\c3d\Daniel.ASF
:FULLY-SPECIFIED
:DEGREES
314
root 15.9366 1.2951 1.11318 -794.332 -85.7019 -405.934
lowerback 39.3762 -3.82141 2.01361
upperback 15.4463 -6.40097 -2.58828
thorax -2.34326 -4.17915 -1.46758
lowerneck 9.11239 4.10316 -4.40771
upperneck 12.8251 4.9301 -2.19428
head 2.49769 1.97656 -0.00342584
rclavicle -3.18055e-015 -5.60573e-014
rhumerus -22.4246 5.62531 -96.3453
rradius 23.662
rwrist -16.6977
rhand -30.1189 -359.095
rfingers 7.12502
rthumb -3.43224 -389.047
lclavicle -3.18055e-015 -5.60573e-014
lhumerus -739.622 25.2949 -647.364
lradius 23.0235
lwrist -36.9717
lhand -23.6364 355.309
lfingers 7.12502
lthumb 2.82847 385.27
rfemur 358.133 -4.96485 375.021
rtibia 71.9271
rfoot 19.7978 -2.97886
rtoes 11.2043
lfemur -12.9145 4.03009 -7.46205
ltibia 86.7187
lfoot 22.0791 -3.34962
ltoes 0.18742
315
root 15.9559 1.2943 1.11468 -793.875 -85.7228 -406.64
lowerback 39.1225 -3.86031 1.9649
upperback 15.155 -6.42193 -2.54538
thorax -2.58131 -4.16347 -1.38368
lowerneck 9.14092 4.10612 -4.53799
upperneck 12.7626 4.91732 -2.09558
head 2.4661 1.97013 0.048128
rclavicle 6.04305e-014 -1.21656e-013
rhumerus -22.5709 5.2861 -96.1736
rradius 24.1458
rwrist -16.5635
rhand -29.5471 -359.227
rfingers 7.12502
rthumb -2.88006 -389.187
lclavicle 6.04305e-014 -1.21656e-013
lhumerus -740.308 25.66 -647.49
lradius 22.685
lwrist -37.8135
lhand -23.0009 355.453
lfingers 7.12502
lthumb 3.44224 385.405
rfemur 358.128 -4.93737 374.975
rtibia 72.445
rfoot 19.8069 -3.03384
rtoes 11.4164
lfemur -12.7049 3.70891 -7.40818
ltibia 86.7777
lfoot 22.203 -3.6286
ltoes -0.262788
316
root 15.9715 1.29372 1.11795 -793.596 -85.717 -407.152
lowerback 38.8443 -3.90328 1.92292
upperback 14.8783 -6.44785 -2.53026
thorax -2.7986 -4.14913 -1.33323
lowerneck 9.14062 4.09915 -4.54719
upperneck 12.6851 4.90774 -2.04457
head 2.43834 1.97119 0.0652216
rclavicle 7.4743e-014 -1.50281e-013
rhumerus -22.7344 4.85409 -95.9959
rradius 24.5992
rwrist -16.1263
rhand -29.0003 -359.321
rfingers 7.12502
rthumb -2.35196 -389.288
lclavicle 7.4743e-014 -1.50281e-013
lhumerus -740.974 25.9661 -647.629
lradius 22.3758
lwrist -38.5532
lhand -22.3284 355.337
lfingers 7.12502
lthumb 4.0917 385.278
rfemur 358.113 -4.95967 374.847
rtibia 72.9538
rfoot 19.7965 -3.05291
rtoes 11.5875
lfemur -12.4946 3.41012 -7.37882
ltibia 86.8831
lfoot 22.359 -3.58745
ltoes -0.0854378
317
root 15.9856 1.29252 1.12067 -793.136 -85.7292 -407.847
lowerback 38.6014 -3.96392 1.91435
upperback 14.6012 -6.48579 -2.50149
thorax -3.02702 -4.14128 -1.2794
lowerneck 9.11144 4.09436 -4.55599
upperneck 12.5802 4.90528 -2.01033
head 2.40663 1.97698 0.0772293
rclavicle -9.70069e-014 1.91628e-013
rhumerus -22.9474 4.62885 -95.8088
rradius 25.0715
rwrist -15.6887
rhand -28.47 -359.435
rfingers 7.12502
rthumb -1.83988 -389.407
lclavicle -9.70069e-014 1.91628e-013
lhumerus -741.638 26.3296 -647.763
lradius 22.1122
lwrist -39.2661
lhand -21.5827 354.992
lfingers 7.12502
lthumb 4.81174 384.918
rfemur 358.127 -4.98309 374.75
rtibia 73.437
rfoot 19.7537 -3.17723
rtoes 11.8755
lfemur -12.2815 3.12748 -7.30671
ltibia 87.0149
lfoot 22.5099 -3.23082
ltoes 0.230211
318
root 15.998 1.29043 1.12259 -792.64 -85.7248 -408.557
lowerback 38.3874 -4.02867 1.9122
upperback 14.3145 -6.52678 -2.47314
thorax -3.27466 -4.13453 -1.22601
lowerneck 9.02904 4.07919 -4.547
upperneck 12.4435 4.89686 -1.99602
head 2.37421 1.98206 0.0809155
rclavicle -1.43125e-014 3.53837e-014
rhumerus -23.179 4.43357 -95.6071
rradius 25.5088
rwrist -15.1527
rhand -27.9768 -359.44
rfingers 7.12502
rthumb -1.36351 -389.415
lclavicle -1.43125e-014 3.53837e-014
lhumerus -742.27 26.8608 -647.931
lradius 21.8167
lwrist -40.1113
lhand -20.893 354.332
lfingers 7.12502
lthumb 5.47765 384.241
rfemur 358.114 -5.04924 374.613
rtibia 73.9178
rfoot 19.6949 -3.28175
rtoes 12.0004
lfemur -12.0492 2.87175 -7.23673
ltibia 87.1266
lfoot 22.7071 -2.70137
ltoes 0.704062
319
root 16.0099 1.2885 1.12541 -792.116 -85.7356 -409.286
lowerback 38.2357 -4.10634 1.95362
upperback 13.9931 -6.56677 -2.45984
thorax -3.58461 -4.12319 -1.20444
lowerneck 8.9875 4.05626 -4.43957
upperneck 12.2581 4.88477 -2.01522
head 2.32181 1.99143 0.0566538
rclavicle -4.6118e-014 8.42847e-014
rhumerus -23.5074 4.26336 -95.4331
rradius 25.9434
rwrist -14.6145
rhand -27.539 -359.326
rfingers 7.12502
rthumb -0.940636 -389.304
lclavicle -4.6118e-014 8.42847e-014
lhumerus -742.942 27.2787 -648.14
lradius 21.5913
lwrist -40.8679
lhand -20.2263 353.629
lfingers 7.12502
lthumb 6.12139 383.52
rfemur 358.1 -5.12244 374.487
rtibia 74.3828
rfoot 19.5994 -3.3848
rtoes 12.0092
lfemur -11.8134 2.64687 -7.14702
ltibia 87.2325
lfoot 22.9688 -2.13872
ltoes 1.4526
320
root 16.0239 1.28699 1.12755 -791.823 -85.7497 -409.767
lowerback 38.175 -4.14873 1.93865
upperback 13.6131 -6.57666 -2.41102
thorax -3.97765 -4.09757 -1.11873
lowerneck 8.9642 4.02342 -4.24857
upperneck 12.0337 4.86875 -2.09692
head 2.25715 2.00285 -0.00156489
rclavicle -1.27222e-014 -2.42517e-014
rhumerus -23.9834 4.23501 -95.2414
rradius 26.4205
rwrist -14.1988
rhand -27.2018 -358.995
rfingers 7.12502
rthumb -0.615011 -388.974
lclavicle -1.27222e-014 -2.42517e-014
lhumerus -743.672 27.7694 -648.367
lradius 21.3947
lwrist -41.6514
lhand -19.5854 352.961
lfingers 7.12502
lthumb 6.74004 382.834
rfemur 358.094 -5.21085 374.345
rtibia 74.8175
rfoot 19.4733 -3.41407
rtoes 11.8067
lfemur -11.5852 2.45687 -7.0451
ltibia 87.334
lfoot 23.2929 -1.65363
ltoes 2.22844
321
root 16.0369 1.28569 1.12938 -791.369 -85.744 -410.399
lowerback 38.1786 -4.18615 1.8902
upperback 13.2133 -6.59311 -2.35863
thorax -4.40989 -4.07643 -1.00489
lowerneck 8.82616 3.98664 -3.98356
upperneck 11.8336 4.86608 -2.22158
head 2.22278 2.02254 -0.0826783
rclavicle 1.11319e-014 -4.41302e-014
rhumerus -24.5189 4.35306 -95.0852
rradius 26.9186
rwrist -13.9326
rhand -26.9677 -358.473
rfingers 7.12502
rthumb -0.388897 -388.453
lclavicle 1.11319e-014 -4.41302e-014
lhumerus -744.429 28.1938 -648.625
lradius 21.2752
lwrist -42.3448
lhand -19.0142 352.384
lfingers 7.12502
lthumb 7.29147 382.238
rfemur 358.104 -5.32177 374.189
rtibia 75.2247
rfoot 19.3011 -3.42676
rtoes 11.6312
lfemur -11.3767 2.31507 -6.93158
ltibia 87.4374
lfoot 23.5528 -1.22662
ltoes 2.8089
